<?xml version="1.0" encoding="UTF-8"?>
<!DOCTYPE svg PUBLIC "-//W3C//DTD SVG 1.1//EN" "http://www.w3.org/Graphics/SVG/1.1/DTD/svg11.dtd">
<svg xmlns="http://www.w3.org/2000/svg" version="1.1" transform="matrix(1 0 0 1 0 0)" width="200" height="200" viewBox="0 0 400 400"
	 style="shape-rendering:geometricPrecision; text-rendering:geometricPrecision; image-rendering:optimizeQuality; fill-rule:evenodd; clip-rule:evenodd" xmlns:xlink="http://www.w3.org/1999/xlink">
	<g>
		<path
			  fill="#FFF"
			  d="M 77.5,81.5 C 112.167,81.5 146.833,81.5 181.5,81.5C 181.832,92.8529 181.499,104.186 180.5,115.5C 176.577,116.651 172.577,117.485 168.5,118C 168.043,118.414 167.709,118.914 167.5,119.5C 179.349,143.198 191.182,166.864 203,190.5C 216.455,166.421 230.288,142.588 244.5,119C 236.867,117.578 229.2,116.411 221.5,115.5C 220.501,104.186 220.168,92.8529 220.5,81.5C 254.167,81.5 287.833,81.5 321.5,81.5C 321.667,92.8382 321.5,104.172 321,115.5C 312.533,116.613 304.2,118.28 296,120.5C 273.667,159.167 251.333,197.833 229,236.5C 228.167,250.845 228.334,265.178 229.5,279.5C 237.45,281.423 245.45,283.09 253.5,284.5C 253.5,296.167 253.5,307.833 253.5,319.5C 217.833,319.5 182.167,319.5 146.5,319.5C 146.5,307.833 146.5,296.167 146.5,284.5C 154.423,283.149 162.257,281.482 170,279.5C 170.667,266.167 170.667,252.833 170,239.5C 147.667,199.833 125.333,160.167 103,120.5C 94.9882,118.329 86.8215,116.662 78.5,115.5C 77.5012,104.186 77.1678,92.8529 77.5,81.5 Z"/>
	</g>
</svg>
